 <svg version="1.0" xmlns="http://www.w3.org/2000/svg" width="700.000000pt" height="1050.000000pt" viewBox="0 0 700.000000 1050.000000" preserveAspectRatio="xMidYMid meet">
<metadata>
Created by potrace 1.12, written by Peter Selinger 2001-2015
</metadata>
<g transform="translate(0.000000,1050.000000) scale(0.100000,-0.100000)" fill="#000000" stroke="none">
<path d="M3295 9788 c-16 -5 -37 -12 -45 -16 -24 -9 -49 -12 -155 -14 -67 -1
-81 -3 -42 -5 31 -2 57 -8 57 -12 0 -4 -53 -14 -117 -21 -93 -11 -111 -16 -83
-21 28 -5 30 -7 10 -8 -32 -1 -192 -53 -243 -79 -21 -10 -38 -23 -37 -28 1 -5
-28 -21 -64 -36 -36 -14 -100 -50 -142 -78 -84 -56 -88 -60 -122 -105 -13 -16
-46 -55 -74 -85 -69 -75 -226 -293 -234 -324 -3 -14 -12 -30 -20 -37 -8 -6
-14 -19 -14 -29 0 -9 -21 -59 -47 -111 -25 -52 -50 -107 -54 -124 -4 -16 -17
-64 -29 -105 -37 -130 -38 -136 -25 -427 5 -95 11 -173 15 -173 4 0 11 -35 15
-77 4 -43 9 -93 11 -112 1 -19 6 -53 10 -75 4 -23 8 -57 8 -76 5 -116 6 -118
27 -123 16 -4 19 -11 14 -27 -9 -28 2 -74 26 -101 10 -12 19 -18 20 -13 2 23
38 -156 38 -193 1 -45 10 -53 30 -29 9 10 9 20 2 33 -6 13 -6 35 2 68 11 47
12 48 15 18 2 -18 7 -33 12 -33 5 0 9 65 9 145 1 146 12 251 33 302 l11 28 9
-37 c7 -25 16 -38 26 -38 14 0 14 -2 3 -9 -20 -13 6 -62 43 -80 16 -7 34 -26
40 -42 11 -30 26 -39 26 -16 0 6 -6 23 -13 37 -15 30 -11 60 9 60 9 0 14 11
14 34 0 19 5 38 10 41 6 3 10 20 10 36 0 24 -4 30 -17 27 -14 -2 -19 -15 -21
-61 -3 -64 -21 -83 -50 -52 -16 17 -16 17 6 12 20 -5 22 -2 22 43 0 39 4 51
23 63 34 22 143 45 242 51 61 4 65 5 65 17 0 8 -15 10 -47 5 -27 -4 -75 -9
-108 -12 -90 -8 -133 -22 -167 -55 -35 -33 -52 -27 -62 21 -6 31 -21 40 -29
18 -2 -7 -3 -4 -1 7 2 11 -6 54 -16 95 -26 99 -25 126 8 251 30 109 66 189 91
197 9 3 11 0 6 -9 -5 -7 5 -3 23 9 17 13 47 29 66 37 23 10 36 22 36 34 0 19
24 44 50 53 9 3 42 28 75 54 33 27 71 55 85 63 29 17 122 42 129 35 2 -2 -11
-20 -29 -39 -19 -19 -29 -35 -23 -35 7 0 19 10 28 23 11 16 18 19 23 9 7 -10
18 -9 58 3 175 56 216 61 394 53 19 -1 65 1 102 4 43 3 71 1 79 -6 7 -7 13 -7
15 -1 2 6 42 9 97 7 50 -1 104 -2 120 -3 15 0 36 3 47 6 13 4 20 2 20 -7 0
-10 23 -13 97 -13 97 0 163 -15 163 -38 0 -6 -7 -19 -17 -29 -17 -19 -5 -26
14 -7 7 7 9 3 5 -17 -3 -19 -1 -25 7 -20 6 4 11 1 11 -8 0 -9 -4 -16 -9 -16
-9 0 -24 -60 -17 -67 2 -2 20 12 39 32 29 29 43 37 74 37 76 0 84 -2 93 -24 5
-13 9 -17 9 -10 1 11 51 18 51 7 0 -11 -32 -70 -48 -88 -8 -9 -12 -20 -7 -25
4 -4 12 2 19 13 6 11 26 35 44 53 26 28 37 33 60 28 15 -4 37 -8 50 -11 32 -5
47 -29 62 -95 7 -30 24 -87 36 -126 22 -65 33 -125 50 -255 6 -39 3 -50 -15
-68 -11 -11 -29 -21 -39 -21 -10 0 -35 -16 -55 -35 -43 -41 -57 -43 -98 -13
-22 17 -49 23 -107 28 -156 11 -540 -16 -582 -40 -23 -14 35 -12 180 5 228 27
493 16 507 -21 3 -8 9 -12 13 -9 5 3 7 -47 6 -111 -1 -63 2 -118 6 -120 4 -3
8 8 8 25 0 26 7 34 40 51 22 11 61 40 87 65 27 25 55 45 64 45 32 0 72 -66 84
-140 17 -96 35 -391 33 -540 -1 -140 4 -166 33 -175 25 -8 79 38 79 66 0 10
11 28 24 41 28 28 55 107 96 288 17 74 41 167 52 205 17 56 22 97 22 208 1 93
5 140 13 145 6 4 16 34 21 67 8 48 10 53 12 25 2 -34 2 -34 10 -8 9 30 21 130
21 165 -1 13 5 22 12 20 9 -1 12 29 10 128 -1 72 -5 153 -9 180 -4 28 -6 67
-5 87 1 21 -4 48 -10 60 -12 23 -12 23 9 4 18 -16 17 -11 -8 40 -35 71 -47
109 -31 100 9 -6 -13 43 -74 167 -17 34 -3 36 15 2 7 -14 17 -25 22 -25 12 0
10 18 -3 25 -5 4 -21 30 -35 58 -50 106 -102 192 -125 206 l-24 15 24 -27 c14
-15 22 -29 20 -31 -7 -8 -90 75 -84 84 3 5 0 12 -6 16 -8 5 -10 2 -5 -7 4 -8
-2 -3 -14 11 -11 14 -32 48 -46 75 -23 49 -72 98 -57 57 7 -16 5 -16 -18 -1
-13 9 -39 20 -57 23 -17 4 -32 12 -32 17 0 6 -4 8 -9 4 -5 -3 -15 11 -22 30
-7 19 -16 35 -20 35 -6 0 -23 58 -20 73 0 4 -5 7 -12 7 -6 0 -21 17 -32 37
-20 38 -30 43 -114 64 -23 6 -41 13 -38 15 7 7 -50 64 -63 64 -6 0 -9 4 -6 9
3 4 -28 18 -69 30 -40 12 -79 29 -85 37 -7 8 -18 14 -24 14 -6 0 -2 -7 8 -15
26 -20 12 -32 -18 -16 -13 7 -39 13 -59 14 -20 0 -34 4 -32 7 2 4 -28 12 -68
19 -40 7 -119 21 -175 32 -108 20 -195 23 -247 7z m953 -260 c7 -7 12 -17 12
-22 0 -6 -5 -3 -11 7 -6 9 -14 15 -19 12 -5 -3 -11 -1 -15 5 -9 14 18 13 33
-2z m228 -263 c10 -8 14 -15 9 -15 -6 0 -15 4 -20 9 -6 5 -19 11 -30 14 -20 5
-19 5 1 6 11 0 29 -6 40 -14z m60 -40 c10 -8 15 -14 9 -14 -5 0 -19 6 -29 14
-11 8 -15 15 -10 15 6 0 19 -7 30 -15z m-276 -1531 c0 -14 -4 -22 -10 -19 -5
3 -10 17 -10 31 0 14 4 22 10 19 6 -3 10 -17 10 -31z m4 -79 c-4 -8 -8 -15
-10 -15 -2 0 -4 7 -4 15 0 8 4 15 10 15 5 0 7 -7 4 -15z m476 -323 c0 -75 -27
-163 -60 -196 -36 -37 -47 -29 -22 15 25 45 46 124 38 144 -7 18 24 96 36 89
4 -3 8 -26 8 -52z"></path>
<path d="M2840 9690 c0 -5 7 -7 15 -4 8 4 15 8 15 10 0 2 -7 4 -15 4 -8 0 -15
-4 -15 -10z"></path>
<path d="M2560 8460 c0 -5 7 -10 15 -10 8 0 15 5 15 10 0 6 -7 10 -15 10 -8 0
-15 -4 -15 -10z"></path>
<path d="M2523 8183 c-7 -3 -13 -11 -13 -19 0 -8 -5 -14 -10 -14 -6 0 -24 -12
-41 -27 -17 -16 -36 -27 -41 -25 -15 4 -58 -26 -58 -41 0 -8 4 -7 10 3 6 9 10
10 10 3 0 -6 -4 -15 -10 -18 -23 -14 -9 -35 23 -35 35 0 68 33 44 44 -8 3 -3
12 13 23 53 38 92 80 89 94 -2 9 -10 14 -16 12z"></path>
<path d="M3920 8159 c0 -11 -80 -40 -91 -33 -17 10 -61 -6 -56 -19 4 -10 -9
-12 -54 -9 -52 4 -61 2 -77 -18 -13 -16 -29 -23 -53 -23 -32 1 -33 1 -9 -9 24
-10 25 -10 4 -18 -29 -11 -36 -45 -15 -64 10 -9 21 -13 26 -9 4 5 5 -1 1 -13
-6 -20 -3 -21 46 -18 52 4 90 12 178 41 62 20 150 28 150 14 0 -6 -7 -11 -15
-11 -8 0 -15 -4 -15 -9 0 -12 52 -24 59 -14 19 25 41 35 55 24 8 -7 57 -14
109 -17 103 -6 123 2 90 38 -26 29 -99 78 -106 71 -3 -3 -25 13 -48 36 -23 22
-50 41 -59 41 -10 0 -23 7 -30 15 -13 16 -90 19 -90 4z m95 -169 c3 -5 -3 -10
-14 -10 -12 0 -21 5 -21 10 0 6 6 10 14 10 8 0 18 -4 21 -10z"></path>
<path d="M2615 8110 c-3 -5 1 -10 9 -10 8 0 18 5 21 10 3 6 -1 10 -9 10 -8 0
-18 -4 -21 -10z"></path>
<path d="M2684 8106 c-4 -10 -16 -21 -27 -25 -18 -7 -18 -8 -2 -25 10 -9 24
-15 31 -12 7 3 16 1 19 -4 3 -5 13 -6 23 -3 13 4 13 2 -3 -10 -11 -9 -28 -17
-38 -17 -23 0 -13 -19 11 -19 54 0 141 -9 151 -16 7 -4 15 -4 18 -1 4 3 2 6
-4 6 -6 0 -14 8 -18 18 -5 14 -4 15 6 5 15 -15 39 -17 39 -3 0 6 -8 10 -17 11
-11 0 -13 2 -5 6 7 3 24 -2 37 -11 14 -9 25 -12 25 -6 0 5 -11 17 -25 26 -20
13 -23 19 -14 36 14 25 6 33 -19 19 -27 -14 -33 -14 -29 2 1 8 -18 12 -67 13
-46 1 -71 6 -77 15 -6 11 -9 10 -15 -5z m106 -96 c12 -8 11 -10 -7 -10 -13 0
-23 5 -23 10 0 13 11 13 30 0z"></path>
<path d="M2930 8082 c0 -5 11 -15 25 -22 14 -7 25 -18 25 -24 1 -17 58 -82 65
-74 4 4 -7 25 -24 46 -17 22 -31 45 -31 51 0 6 -12 16 -26 21 -31 12 -34 12
-34 2z"></path>
<path d="M3526 8068 c-16 -23 -21 -48 -10 -48 3 0 15 11 26 25 13 17 29 25 50
25 39 0 34 5 -14 14 -31 6 -39 3 -52 -16z"></path>
<path d="M2490 8021 c0 -11 26 -22 34 -14 3 3 3 10 0 14 -7 12 -34 11 -34 0z"></path>
<path d="M2580 8009 c0 -5 5 -7 10 -4 6 3 10 8 10 11 0 2 -4 4 -10 4 -5 0 -10
-5 -10 -11z"></path>
<path d="M2548 8003 c7 -3 16 -2 19 1 4 3 -2 6 -13 5 -11 0 -14 -3 -6 -6z"></path>
<path d="M2343 7985 c-17 -19 -16 -26 1 -19 15 6 30 34 18 34 -4 -1 -13 -7
-19 -15z"></path>
<path d="M3470 7990 c0 -5 5 -10 10 -10 6 0 10 5 10 10 0 6 -4 10 -10 10 -5 0
-10 -4 -10 -10z"></path>
<path d="M4940 7990 c0 -5 5 -10 11 -10 5 0 7 5 4 10 -3 6 -8 10 -11 10 -2 0
-4 -4 -4 -10z"></path>
<path d="M3460 7961 c0 -5 7 -11 15 -15 9 -3 15 0 15 9 0 8 -7 15 -15 15 -8 0
-15 -4 -15 -9z"></path>
<path d="M2590 7770 c0 -6 39 -10 98 -10 136 0 321 -19 358 -36 26 -12 31 -21
32 -52 2 -48 -7 -94 -18 -87 -16 10 -23 -18 -7 -30 13 -9 14 -19 7 -51 -12
-50 -12 -56 -1 -49 5 3 12 18 16 34 3 16 18 37 31 46 19 12 24 23 22 43 -2 16
-9 27 -18 27 -17 0 -21 52 -6 72 14 21 192 5 223 -19 6 -5 15 -35 19 -66 3
-31 10 -61 14 -67 4 -5 14 -29 21 -52 6 -24 16 -43 21 -43 12 0 11 6 -17 95
-27 86 -31 135 -15 166 11 20 1 26 -16 9 -6 -6 -56 -5 -139 1 -106 9 -134 15
-151 31 -13 12 -52 25 -100 33 -92 17 -374 20 -374 5z"></path>
<path d="M2615 7724 c-37 -6 -165 -66 -165 -78 0 -16 96 0 126 22 16 11 40 22
53 24 20 2 24 -2 27 -27 4 -40 46 -75 89 -75 32 0 47 12 92 79 1 2 17 -10 35
-28 31 -31 48 -39 48 -23 0 16 -56 61 -100 81 -46 20 -150 33 -205 25z m110
-33 c3 -5 1 -12 -4 -15 -5 -3 -11 1 -15 9 -6 16 9 21 19 6z"></path>
<path d="M3749 7717 c-71 -16 -126 -52 -163 -106 -33 -47 -28 -66 9 -31 13 12
31 20 39 17 18 -7 31 9 16 18 -13 8 -13 25 1 25 5 0 7 -6 4 -12 -4 -7 5 1 19
17 l26 30 26 -32 c47 -60 122 -54 150 13 8 19 20 34 27 34 19 0 37 -21 37 -42
0 -10 7 -18 15 -18 8 0 15 -5 15 -10 0 -9 47 -9 88 -1 2 1 0 6 -4 12 -3 6 -1
15 5 19 9 5 1 14 -21 26 -74 44 -199 61 -289 41z"></path>
<path d="M4185 7698 c8 -37 12 -44 21 -35 9 9 -6 67 -18 67 -6 0 -7 -13 -3
-32z"></path>
<path d="M3535 7635 c-15 -19 -25 -39 -23 -45 2 -6 18 9 35 34 38 53 27 63
-12 11z"></path>
<path d="M3035 7630 c-3 -5 -2 -10 4 -10 5 0 13 5 16 10 3 6 2 10 -4 10 -5 0
-13 -4 -16 -10z"></path>
<path d="M3393 7613 c-9 -3 -10 -10 -3 -24 6 -11 10 -25 9 -32 -3 -26 2 -37
16 -37 21 0 19 46 -2 55 -17 6 -17 7 0 19 28 22 16 34 -20 19z"></path>
<path d="M2925 7580 c4 -6 11 -8 16 -5 14 9 11 15 -7 15 -8 0 -12 -5 -9 -10z"></path>
<path d="M3855 7570 c4 -6 11 -8 16 -5 14 9 11 15 -7 15 -8 0 -12 -5 -9 -10z"></path>
<path d="M3054 7385 c-31 -36 -54 -69 -50 -73 4 -4 19 7 32 23 14 17 40 46 59
66 19 21 35 40 35 43 0 18 -25 -1 -76 -59z"></path>
<path d="M4780 7170 c0 -5 5 -10 10 -10 6 0 10 5 10 10 0 6 -4 10 -10 10 -5 0
-10 -4 -10 -10z"></path>
<path d="M4770 7135 c0 -3 -9 -39 -20 -81 -11 -42 -22 -106 -24 -143 -3 -75
-11 -93 -56 -136 -28 -26 -38 -30 -85 -28 -39 1 -57 -3 -67 -15 -8 -9 -36 -86
-62 -170 -26 -85 -69 -202 -97 -260 -47 -100 -56 -112 -137 -185 -48 -43 -104
-88 -125 -100 -20 -12 -86 -52 -145 -88 -59 -37 -125 -76 -148 -87 -23 -12
-70 -45 -105 -75 -103 -86 -141 -96 -360 -101 -64 -2 -121 -6 -127 -10 -19
-11 -217 -8 -248 5 -95 37 -161 79 -205 127 -26 28 -50 52 -54 52 -4 0 -13 7
-21 15 -9 8 -20 15 -25 15 -5 0 15 -26 45 -57 111 -119 126 -136 126 -147 0
-12 95 -76 114 -76 6 0 20 -7 30 -15 11 -8 32 -15 48 -15 15 0 28 -4 28 -9 0
-14 109 -31 215 -32 275 -5 558 107 867 342 65 50 114 79 134 79 2 0 4 -49 4
-110 0 -87 3 -110 14 -110 11 0 14 30 15 153 1 218 6 245 69 382 30 66 61 138
69 160 27 73 75 229 82 265 6 34 8 35 61 40 62 6 97 26 136 77 22 29 28 49 35
131 4 53 15 122 23 152 19 66 18 60 6 60 -5 0 -10 -2 -10 -5z"></path>
<path d="M2040 7090 c0 -5 7 -10 16 -10 8 0 12 5 9 10 -3 6 -10 10 -16 10 -5
0 -9 -4 -9 -10z"></path>
<path d="M3580 6976 c0 -9 5 -16 10 -16 6 0 10 4 10 9 0 6 -4 13 -10 16 -5 3
-10 -1 -10 -9z"></path>
<path d="M2070 6931 c0 -6 5 -13 10 -16 6 -3 10 1 10 9 0 9 -4 16 -10 16 -5 0
-10 -4 -10 -9z"></path>
<path d="M3580 6889 c0 -40 -56 -99 -94 -99 -14 0 -26 -5 -26 -11 0 -13 37 -8
95 14 37 14 40 19 47 63 7 49 4 64 -13 64 -5 0 -9 -14 -9 -31z"></path>
<path d="M3070 6888 c-34 -37 -27 -52 22 -44 23 4 48 12 56 19 12 9 11 14 -8
29 -29 24 -45 23 -70 -4z"></path>
<path d="M3371 6897 c-39 -19 -35 -32 19 -57 56 -26 77 -20 57 19 -19 38 -48
53 -76 38z"></path>
<path d="M2970 6841 c0 -4 9 -20 21 -35 19 -24 27 -27 72 -24 31 2 52 8 55 16
3 10 -5 12 -34 6 -27 -5 -40 -3 -48 7 -11 14 -51 39 -61 39 -3 0 -5 -4 -5 -9z"></path>
<path d="M3180 6814 c1 -5 17 -17 37 -26 27 -13 41 -14 55 -7 23 12 18 21 -14
24 -13 2 -35 6 -50 10 -16 4 -28 3 -28 -1z"></path>
<path d="M3140 6800 c0 -5 5 -10 10 -10 6 0 10 5 10 10 0 6 -4 10 -10 10 -5 0
-10 -4 -10 -10z"></path>
<path d="M3323 6790 c4 -25 5 -26 50 -33 49 -8 51 18 2 39 -46 19 -55 18 -52
-6z"></path>
<path d="M3090 6529 c-64 -18 -136 -57 -176 -94 -38 -37 -40 -37 -81 -26 -51
13 -90 1 -102 -31 -5 -13 -8 -24 -7 -25 1 -1 20 4 41 11 34 12 57 11 165 -5
69 -10 136 -21 149 -25 18 -5 22 -4 17 5 -4 6 -3 18 3 25 18 21 2 49 -23 41
-48 -16 -145 -26 -160 -18 -13 7 -3 17 47 50 105 68 120 74 182 67 30 -4 55
-4 55 0 0 6 -65 37 -72 35 -2 0 -19 -5 -38 -10z"></path>
<path d="M3290 6525 c-23 -8 -36 -20 -38 -34 -4 -26 -6 -26 55 3 48 24 81 25
108 6 6 -4 43 -24 84 -45 57 -30 70 -40 57 -47 -9 -5 -16 -16 -16 -23 0 -20
-6 -19 -92 10 -74 25 -168 34 -168 15 0 -5 25 -10 56 -10 40 0 55 -4 52 -12
-3 -7 -17 -14 -31 -16 -25 -3 -57 -34 -57 -55 0 -9 7 -9 165 13 49 7 109 9
132 6 23 -3 56 0 74 6 24 8 37 8 52 -1 28 -18 40 5 19 37 -14 22 -21 24 -66
18 -54 -6 -65 -2 -82 28 -13 24 -15 25 -130 76 -97 42 -118 45 -174 25z"></path>
<path d="M3115 6421 c6 -6 33 -14 60 -17 35 -5 47 -3 40 4 -5 6 -32 14 -60 17
-36 5 -47 4 -40 -4z"></path>
<path d="M3224 6360 c-6 -25 -11 -30 -36 -30 -25 0 -28 3 -23 21 5 16 3 20
-11 17 -9 -1 -18 -13 -20 -24 -4 -25 20 -34 99 -39 47 -2 64 8 27 18 -16 4
-19 11 -14 36 4 20 3 31 -5 31 -6 0 -14 -13 -17 -30z"></path>
<path d="M2210 6345 c0 -26 135 -235 211 -326 31 -37 40 -57 45 -103 8 -66 20
-73 26 -13 6 50 -9 91 -49 138 -17 19 -41 52 -55 74 -14 22 -42 59 -62 83 -19
24 -52 70 -72 103 -39 63 -44 68 -44 44z"></path>
<path d="M3006 6246 c8 -20 34 -29 34 -12 0 8 -7 17 -16 20 -22 9 -24 8 -18
-8z"></path>
<path d="M3325 6230 c3 -5 8 -10 11 -10 2 0 4 5 4 10 0 6 -5 10 -11 10 -5 0
-7 -4 -4 -10z"></path>
<path d="M3270 6220 c-8 -5 -11 -12 -8 -16 10 -9 38 3 38 16 0 12 -10 13 -30
0z"></path>
<path d="M3205 6200 c3 -5 12 -10 20 -10 8 0 17 5 20 10 4 6 -5 10 -20 10 -15
0 -24 -4 -20 -10z"></path>
<path d="M3079 6158 c-3 -13 -8 -48 -6 -48 1 0 27 7 57 15 30 8 76 15 103 15
26 0 47 5 47 10 0 8 -198 16 -201 8z"></path>
<path d="M4290 5666 c0 -63 -52 -192 -97 -242 -21 -23 -65 -59 -97 -79 -33
-21 -79 -56 -102 -77 -24 -22 -98 -76 -166 -121 -74 -50 -128 -93 -138 -112
-19 -35 -84 -84 -159 -122 -58 -29 -171 -128 -198 -174 -9 -15 -24 -30 -34
-32 -20 -5 -49 -54 -160 -266 -41 -80 -80 -146 -86 -148 -11 -4 -56 89 -98
201 -36 96 -52 124 -74 131 -11 3 -35 37 -56 78 -21 40 -50 88 -65 108 -48 60
-210 351 -231 411 -14 44 -19 87 -20 185 -1 70 -4 139 -8 152 -6 23 -11 18
-53 -50 -54 -86 -74 -128 -88 -185 -25 -100 -104 -156 -278 -194 -53 -12 -149
-37 -212 -55 -63 -18 -149 -41 -190 -51 -41 -9 -86 -22 -100 -29 -35 -17 -202
-65 -280 -80 -36 -7 -103 -22 -150 -34 -47 -12 -114 -29 -149 -38 -95 -24
-226 -93 -321 -170 -75 -61 -90 -78 -132 -158 -68 -129 -208 -449 -261 -595
-25 -69 -100 -287 -166 -486 l-121 -360 0 -1537 0 -1537 2988 0 2988 0 13 122
c7 67 16 144 22 172 5 28 22 139 39 246 17 107 39 222 50 255 11 33 31 136 44
228 13 93 26 170 28 172 20 20 94 -94 128 -195 11 -30 52 -154 93 -275 41
-121 91 -254 112 -295 20 -41 50 -113 66 -160 16 -47 48 -126 71 -177 l43 -92
158 -1 157 0 0 1964 c0 1226 -4 1967 -9 1971 -9 5 -44 65 -113 195 -33 64 -80
124 -123 160 -16 14 -56 49 -87 77 -44 41 -108 78 -276 162 -222 111 -319 152
-504 214 -57 19 -167 60 -245 91 -180 71 -414 153 -648 225 -130 41 -305 124
-305 146 0 9 -18 39 -39 68 -49 65 -81 129 -127 254 -20 54 -45 110 -55 124
-23 33 -86 59 -139 59 l-40 0 0 -44z m-1442 -3066 c-7 -10 -14 -17 -17 -15 -4
4 18 35 25 35 2 0 -1 -9 -8 -20z m112 -65 c-5 -14 -11 -25 -14 -25 -2 0 -13
-3 -23 -6 -15 -6 -14 -3 5 15 13 13 22 34 23 54 0 29 1 30 9 9 6 -13 6 -32 0
-47z m-284 -1294 c-15 -16 -15 -22 -4 -40 10 -16 10 -23 0 -33 -9 -9 -12 -6
-13 18 0 16 -3 23 -6 16 -3 -7 -2 -23 1 -36 5 -19 12 -23 51 -24 42 0 45 2 40
21 -2 12 -2 16 1 8 5 -11 8 -11 15 0 5 8 9 9 9 3 0 -21 -41 -64 -61 -64 -72 0
-100 92 -41 136 25 19 28 17 8 -5z m84 -11 c0 -6 -9 -5 -20 2 -11 7 -20 16
-20 21 0 4 9 3 20 -3 11 -6 20 -15 20 -20z"></path>
</g>
</svg>